<svg id="Layer_1" data-name="Layer 1" xmlns="http://www.w3.org/2000/svg" viewBox="0 0 370 370"><title>round-logo</title><path d="M350.65,119.15l7,21.23-2.64.87-3-9.07-19.51,6.39-1-3.14L351,129.05l-3-9Z"/><path d="M360,150.21l.42,3.31-9.46,1.19,2.23,17.71,9.46-1.19.42,3.31-23.15,2.92-.42-3.31,10.94-1.38-2.23-17.71-10.94,1.38-.42-3.31Z"/><path d="M363.09,188.7l-1.75,21.44-2.86-.23L360,191.75l-6.94-.56-1.44,17.66-2.73-.23L350.29,191l-7.83-.64-1.54,19-2.87-.23,1.82-22.27Z"/><path d="M348.13,255.79l-1.29,3.4L329,240.66l1.17-3.12,25.75-2.21-1.29,3.42-19,1.5a14.68,14.68,0,0,1-3.11,0,8.09,8.09,0,0,1,2.07,1.7Z"/><path d="M337.75,275.5l-1.82,3-26.14-2,2-3.24,6.38.58,7.47-12.22-3.41-5.42,1.92-3.15Zm-5.63-.54c.43.06.87.1,1.29.17a8.48,8.48,0,0,1,.9.24c-.2-.24-.43-.5-.64-.78s-.52-.74-.78-1.14l-5.68-9.24-6,9.83ZM340.3,282l-1.67,2.73-2.9-1.77,1.67-2.73Zm2.89-4.65-2.9-1.78,1.67-2.73,2.9,1.78Z"/><path d="M310.31,285.05a6.71,6.71,0,0,0-2.14.24,15.19,15.19,0,0,0-7.56,4.88c-3.45,3.78-4,7.11-1.87,9,2.39,2.18,5.08-.32,8.49-3.46,4.31-4,5.79-5.34,8.19-5.56a5,5,0,0,1,4,1.41c4.89,4.48-.91,11.06-2.36,12.64a16.47,16.47,0,0,1-8,5.26,8.19,8.19,0,0,1-3.31.14l1.13-3a9.83,9.83,0,0,0,1.81-.18,12.19,12.19,0,0,0,6.3-4,14.19,14.19,0,0,0,3.08-4.78,3.26,3.26,0,0,0-.76-3.52,2.66,2.66,0,0,0-1.78-.69c-1.22,0-2.19.73-3.83,2.18s-3.1,2.84-4.7,4.25a24.63,24.63,0,0,1-2.37,1.9c-2.13,1.44-5.24,2.44-8.06-.14a6.7,6.7,0,0,1-2.07-3.51c-.67-3.07.93-6.48,4.19-10a26.4,26.4,0,0,1,4.56-4c4.11-2.73,7.05-2.32,8.2-2.16Z"/><path d="M299,321.15l-12.15,8.71c-2,1.46-4.69,3.25-7.6,2.41a5.73,5.73,0,0,1-3-2.25,4.71,4.71,0,0,1-.76-4.69,9.44,9.44,0,0,1,.63-1.1A5.86,5.86,0,0,1,269,322a6.11,6.11,0,0,1-1.06-5.05c.68-2.68,3.28-4.54,5.32-6l12.15-8.71Zm-10-8.27-4.69-6.54L274,313.71a6.25,6.25,0,0,0-2.78,3.37,3.74,3.74,0,0,0,.7,3.11,3.65,3.65,0,0,0,2.89,1.66,6.43,6.43,0,0,0,3.88-1.6Zm5.74,8-4.18-5.82-9.89,7.09a6.38,6.38,0,0,0-2.24,2.26,3.39,3.39,0,0,0,.42,3.42,3.33,3.33,0,0,0,2.91,1.45,7,7,0,0,0,3.53-1.64Z"/><path d="M268,341.49l-11.59-5.86a6,6,0,0,1-1.53-1,4.94,4.94,0,0,1-.22,1.66l-3.22,12.84-3.87,1.77L252.31,333l-3.75-8.19,3-1.36,3.78,8.25,16.49,8.08Z"/><path d="M218.24,341.06a7.09,7.09,0,0,0-1.8-1.18,15.2,15.2,0,0,0-8.95-1c-5.06.71-7.57,3-7.18,5.78.46,3.2,4.13,3,8.75,2.73,5.86-.33,7.87-.45,9.86.9a5,5,0,0,1,2.18,3.62c.93,6.57-7.73,8-9.86,8.26a16.4,16.4,0,0,1-9.51-1,8.3,8.3,0,0,1-2.65-2l2.81-1.63a9.31,9.31,0,0,0,1.51,1,12.15,12.15,0,0,0,7.39.92,14.12,14.12,0,0,0,5.42-1.73,3.25,3.25,0,0,0,1.65-3.2,2.63,2.63,0,0,0-.94-1.67c-.91-.8-2.15-.83-4.34-.75s-4.2.23-6.32.29a22.08,22.08,0,0,1-3,0c-2.56-.24-5.6-1.44-6.14-5.23a6.75,6.75,0,0,1,.63-4c1.44-2.81,4.84-4.42,9.62-5.09a26.83,26.83,0,0,1,6-.16c4.9.51,6.91,2.69,7.7,3.54Z"/><path d="M190.77,361.62l-22.32-.85.1-2.78,9.54.37.78-20.51,3.3.12-.79,20.52,9.5.36Z"/><path d="M155.3,358.79l3.08-13.47c.57-2.65.66-4.25-1-5.95a11.07,11.07,0,0,0-5.89-3,13.82,13.82,0,0,0-5.6-.23c-3.23.65-3.77,3-4.2,4.89L138.51,355l-3.25-.74,3.11-13.64c.53-2.28,1.24-5.4,5.22-6.86,1.82-.67,4.57-1,8.56-.11a14.74,14.74,0,0,1,7.89,4.1c2.72,3,2.14,5.9,1.56,8.48l-3,13.35Z"/><path d="M121.8,349.58l-10.5-4.91c-2.42-1.13-5.24-2.49-7-6.1a11.18,11.18,0,0,1,.28-9.71,11.93,11.93,0,0,1,6.55-6.3c4.33-1.55,8.5.29,12,1.95l8.46,4Zm-1.86-3.9,7.52-16.08-6.16-2.88c-2.66-1.24-6-2.69-9.58-.87a9.59,9.59,0,0,0-4.12,4.53,8.81,8.81,0,0,0-.51,6.86c1.08,2.91,3.45,4,5.34,4.94Z"/><path d="M89.87,332.8,87,330.92,99.91,311.5l2.84,1.88Z"/><path d="M64.34,296.37c5.38-5.85,12.9-4.36,18.41.71a16.37,16.37,0,0,1,5.3,8.38,10.94,10.94,0,0,1-2.9,10.11c-5.84,6.34-13.69,4.4-18.82-.32C60.36,309.71,59.11,302.05,64.34,296.37Zm18.25,17.11a8.94,8.94,0,0,0,2.51-5.76c.12-3.34-1.82-6.25-4.3-8.53-6.33-5.83-11.55-3.23-14.23-.32-4.16,4.52-2.85,10.35,2,14.54C72.18,316.6,77.92,318.56,82.59,313.48Z"/><path d="M22.65,252.48l-7.26-21.13,2.63-.9,3.09,9,19.41-6.66,1.08,3.12L22.18,242.6l3.09,9Z"/><path d="M12.89,221.55l-.47-3.3,9.45-1.33-2.49-17.68-9.45,1.32-.46-3.3L32.58,194l.46,3.3-10.91,1.54,2.48,17.68L35.53,215l.46,3.3Z"/><path d="M9.2,183.15l1.44-21.47,2.87.19-1.22,18.18,6.94.46,1.19-17.68,2.74.19L22,180.7l7.83.52,1.28-19,2.86.19-1.5,22.29Z"/><path d="M23.2,115.81l1.23-3.41L42.6,130.67l-1.13,3.13-25.72,2.59L17,132.94l19-1.77a14.68,14.68,0,0,1,3.11-.06A8.44,8.44,0,0,1,37,129.44Z"/><path d="M27.84,94.17l2.92,1.73-1.63,2.76-2.92-1.73Zm2.82-4.7,1.63-2.75,2.92,1.73-1.63,2.76ZM33.3,96l1.79-3,26.16,1.61-1.93,3.26-6.39-.48-7.3,12.33,3.5,5.36-1.89,3.18Zm5.64.46c-.43-.06-.87-.09-1.29-.15a8.46,8.46,0,0,1-.9-.23c.2.24.43.49.65.77s.53.74.79,1.13L44,107.08l5.87-9.91Z"/><path d="M60.6,86a6.86,6.86,0,0,0,2.14-.26,15.22,15.22,0,0,0,7.49-5c3.4-3.82,3.86-7.17,1.74-9-2.42-2.15-5.07.39-8.44,3.57-4.25,4-5.72,5.43-8.11,5.69a5,5,0,0,1-4-1.36c-5-4.41.75-11.07,2.18-12.68a16.47,16.47,0,0,1,7.91-5.37,8.46,8.46,0,0,1,3.31-.19l-1.08,3.06a9,9,0,0,0-1.81.2,12.22,12.22,0,0,0-6.24,4.07,14.44,14.44,0,0,0-3,4.83A3.25,3.25,0,0,0,53.49,77a2.56,2.56,0,0,0,1.79.66c1.21,0,2.18-.75,3.79-2.23s3.06-2.89,4.64-4.31a24.58,24.58,0,0,1,2.34-1.94c2.11-1.48,5.21-2.52,8.07,0a6.75,6.75,0,0,1,2.12,3.48c.71,3.07-.84,6.5-4,10.1a27.49,27.49,0,0,1-4.51,4c-4.07,2.78-7,2.42-8.17,2.27Z"/><path d="M71.43,49.76l12-8.88c2-1.49,4.65-3.32,7.58-2.52a5.71,5.71,0,0,1,3.07,2.2,4.77,4.77,0,0,1,.83,4.68,11.77,11.77,0,0,1-.62,1.11,5.87,5.87,0,0,1,7.09,2.15,6.05,6.05,0,0,1,1.13,5c-.64,2.69-3.21,4.59-5.23,6.08l-12,8.89Zm4.26.22L80,55.73l9.79-7.23A6.46,6.46,0,0,0,92,46.21a3.39,3.39,0,0,0-.48-3.42,3.33,3.33,0,0,0-2.92-1.41A7.13,7.13,0,0,0,85,43.07Zm5.85,7.9,4.78,6.48,10.17-7.51a6.28,6.28,0,0,0,2.73-3.41,3.74,3.74,0,0,0-.74-3.11,3.7,3.7,0,0,0-2.92-1.62,6.48,6.48,0,0,0-3.86,1.66Z"/><path d="M102.12,29l11.68,5.7a5.87,5.87,0,0,1,1.54,1,5.16,5.16,0,0,1,.2-1.66l3-12.89,3.84-1.83-4.52,18,3.88,8.14-3,1.4-3.9-8.19L98.31,30.8Z"/><path d="M151.87,28.7a6.57,6.57,0,0,0,1.81,1.15,15.07,15.07,0,0,0,9,.9c5.06-.79,7.54-3.08,7.1-5.88-.5-3.2-4.17-2.93-8.79-2.6-5.85.41-7.87.56-9.88-.76a5.08,5.08,0,0,1-2.23-3.6c-1-6.55,7.62-8.07,9.74-8.4a16.37,16.37,0,0,1,9.53.88,8.21,8.21,0,0,1,2.67,1.95L168,14a9.28,9.28,0,0,0-1.53-1,12.12,12.12,0,0,0-7.41-.81A14.12,14.12,0,0,0,153.68,14a3.23,3.23,0,0,0-1.6,3.22,2.56,2.56,0,0,0,1,1.66c.92.79,2.16.79,4.35.68s4.19-.29,6.32-.38a22,22,0,0,1,3,0c2.56.2,5.62,1.36,6.21,5.14a6.61,6.61,0,0,1-.57,4c-1.4,2.82-4.78,4.49-9.54,5.23a26.45,26.45,0,0,1-6,.25c-4.91-.44-6.95-2.59-7.75-3.43Z"/><path d="M179,7.75l22.33.53-.07,2.78-9.53-.23-.49,20.52-3.3-.08.49-20.52-9.5-.23Z"/><path d="M214.56,10.06l-2.89,13.53c-.53,2.65-.6,4.26,1.1,5.93.72.73,2.31,2.12,5.93,2.89a13.78,13.78,0,0,0,5.6.15c3.22-.69,3.73-3.05,4.13-5l3-13.94,3.26.69L231.75,28c-.49,2.29-1.16,5.43-5.13,6.94-1.8.7-4.55,1.09-8.55.23a14.82,14.82,0,0,1-8-4c-2.75-2.92-2.22-5.88-1.67-8.46l2.86-13.4Z"/><path d="M248.17,18.81l10.56,4.75c2.44,1.1,5.29,2.41,7.07,6a11.18,11.18,0,0,1-.13,9.71,12,12,0,0,1-6.46,6.4c-4.31,1.61-8.5-.17-12.09-1.78l-8.51-3.83Zm1.91,3.86L242.8,38.86l6.2,2.79c2.68,1.21,6,2.61,9.59.74a9.61,9.61,0,0,0,4.05-4.59,8.74,8.74,0,0,0,.41-6.87c-1.12-2.89-3.5-4-5.41-4.86Z"/><path d="M280.34,35.13,283.2,37l-12.59,19.6-2.86-1.84Z"/><path d="M306.39,71.18c-5.3,5.93-12.84,4.55-18.42-.44a16.42,16.42,0,0,1-5.42-8.3,11,11,0,0,1,2.75-10.15c5.74-6.42,13.63-4.6,18.82,0C310.17,57.79,311.53,65.43,306.39,71.18Zm-18.5-16.84a9,9,0,0,0-2.43,5.79c-.07,3.35,1.92,6.23,4.42,8.47,6.42,5.74,11.6,3.07,14.24.11,4.09-4.57,2.69-10.38-2.16-14.5C298.25,51.07,292.49,49.2,287.89,54.34Z"/><circle cx="325.34" cy="99.96" r="3.52"/><circle cx="46.47" cy="272.98" r="3.52"/></svg>