<svg id="Layer_1" data-name="Layer 1" xmlns="http://www.w3.org/2000/svg" viewBox="0 0 253.65 97.14"><defs><style>.cls-1{fill:#fcdedc;}</style></defs><title>vasby_logo_pink</title><path class="cls-1" d="M41.68,40.12l-11.2,33.1H19.08L6,35.22c-.87-2.4-1.57-4.16-2.1-5.3l-3.1-6v-.2h25v.2l-3.4,5.7a3,3,0,0,0-.3,2.5l10,30.2,7.7-22.5a8.41,8.41,0,0,0,.35-2A7.8,7.8,0,0,0,39.48,36l-5.9-12.1v-.2h17.2v.2L44,35.62A25.73,25.73,0,0,0,41.68,40.12Z"/><path class="cls-1" d="M94.38,43.12c0,.4,0,1.09,0,2.05s0,1.49,0,1.55l-.6,14.2q-.3,5.81,2.7,5.8a3,3,0,0,0,2.8-1.8h.2a7.94,7.94,0,0,1-.8,3.6Q95.88,74,88.78,74a11.56,11.56,0,0,1-7.6-2.55,9.27,9.27,0,0,1-3.3-7.15A14.06,14.06,0,0,1,64.28,74a13.44,13.44,0,0,1-9.7-3.75q-3.9-3.75-3.9-10.35a13.4,13.4,0,0,1,5-11.05,18.21,18.21,0,0,1,11.75-4q6.8,0,10.6,2.7l.2-10.7v-.5q0-11.49-7.3-11.5a5,5,0,0,0-1.85.2,3,3,0,0,0-.85,1l-8.1,15H60l-6.3-14.3a59.91,59.91,0,0,1,20.2-3.8q10.59,0,15.5,4.6T94.38,43.12Zm-37.3-32a6.32,6.32,0,0,1,2-4.8A6.86,6.86,0,0,1,64,4.42a6.77,6.77,0,0,1,4.8,1.9,6.36,6.36,0,0,1,2,4.8,6.22,6.22,0,0,1-2,4.7,6.73,6.73,0,0,1-4.8,1.9,6.82,6.82,0,0,1-4.9-1.9A6.18,6.18,0,0,1,57.08,11.12Zm17.3,36.8a7,7,0,0,0-5.95,2.9,12.07,12.07,0,0,0-2.15,7.4,10.39,10.39,0,0,0,1.65,6.25,5,5,0,0,0,4.25,2.25c2.26,0,4.16-1.16,5.7-3.5v-.1l.2-14.6A11.66,11.66,0,0,0,74.38,47.92ZM77,11.12a6.32,6.32,0,0,1,2-4.8,6.74,6.74,0,0,1,4.8-1.9,6.89,6.89,0,0,1,4.9,1.9,6.36,6.36,0,0,1,2,4.8,6.22,6.22,0,0,1-2,4.7,6.85,6.85,0,0,1-4.9,1.9,6.7,6.7,0,0,1-4.8-1.9A6.18,6.18,0,0,1,77,11.12Z"/><path class="cls-1" d="M129.88,64.92a5.7,5.7,0,0,0-2-4.6,37.43,37.43,0,0,0-7.55-4.2l-6.8-3.2q-9.7-4.59-9.7-14.2a13.85,13.85,0,0,1,5.5-11.5q5.49-4.29,15-4.3a59.78,59.78,0,0,1,17.6,2.7l-5.6,14.5h-.2l-7.8-13.9a2.65,2.65,0,0,0-2.3-1.5h-1.4a9.11,9.11,0,0,0-5.8,1.8,6.2,6.2,0,0,0-2.3,5.2,6.32,6.32,0,0,0,2.15,5,28.59,28.59,0,0,0,7.05,4.1l6.4,2.8a23.8,23.8,0,0,1,8.25,5.4,11.94,11.94,0,0,1,2.85,8.4,14.18,14.18,0,0,1-6.1,12.25Q131,74,120.78,74a54.86,54.86,0,0,1-18.4-3.1l5.5-15.5h.2l8,15.5a2.12,2.12,0,0,0,2.1,1.3h2.3a10.78,10.78,0,0,0,6.85-2A6.4,6.4,0,0,0,129.88,64.92Z"/><path class="cls-1" d="M167,.32v33.6q5-11,15.61-11a16.2,16.2,0,0,1,13.69,6.85q5.11,6.86,5.11,18.25t-6.2,18.75A20.3,20.3,0,0,1,179,74q-8.29,0-12.39-5.4L150.77,74h-.19V10.22a3.43,3.43,0,0,0-.9-2.5l-4.8-4.6v-.2Zm7.5,30.6c-2.93,0-5.43,1.44-7.5,4.3v32.3a7.85,7.85,0,0,0,5.8,2.2q11.31,0,11.31-21.2Q184.08,30.92,174.47,30.92Z"/><path class="cls-1" d="M243.87,40.32l-12.8,31a106.82,106.82,0,0,1-8.6,16.6,22.68,22.68,0,0,1-6.25,6.85,13.7,13.7,0,0,1-7.65,2,11.65,11.65,0,0,1-4.7-1l3.7-17.5h.2l9.9,9.8c.54.53.94.8,1.2.8q.7,0,1.5-1.2a38.42,38.42,0,0,0,3.8-6.9l.6-1.6L206.17,32q-.49-1.29-1.5-3.3l-2.7-4.8v-.2h25.9v.2l-4,5.5a2.36,2.36,0,0,0-.2,2.3l10.1,28,8.1-19.7a7.54,7.54,0,0,0,.55-1.85,4.29,4.29,0,0,0-.55-1.85l-6.1-12.4v-.2h17.1v.2l-6.5,11.2A32.52,32.52,0,0,0,243.87,40.32Z"/></svg>